<?xml version="1.0" encoding="utf-8"?>
<!-- Generator: Adobe Illustrator 27.5.0, SVG Export Plug-In . SVG Version: 6.00 Build 0)  -->
<svg version="1.1" id="Capa_1" xmlns="http://www.w3.org/2000/svg" xmlns:xlink="http://www.w3.org/1999/xlink" x="0px" y="0px"
	 viewBox="0 0 2122 2122" style="enable-background:new 0 0 2122 2122;" xml:space="preserve">
<g>
	<g>
		<path style="fill:#0D2240;" d="M1337.805,812.083c1.437-16.758,10.294-31.379,20.93-50.579
			c19.732-35.596,28.984-53.403,9.642-92.409c-15.22-30.674-36.662-41.071-31.854-79.819c3.279-26.592,24.76-48.803,27.834-75.488
			c6.31-54.598-40.268-95.407-51.98-145.713c-11.508-49.308-4.463-83.207-57.953-108.822
			c-36.506-17.476-55.624-26.933-78.708-54.377c-23.274-27.649-76.228-9.157-114.84,10.422
			c-38.611-19.579-91.556-38.07-114.825-10.422c-23.084,27.454-42.221,36.901-78.747,54.391
			c-44.491,21.326-54.888,46.974-54.835,86.406c0.049,39.054-12.365,59.147-32.954,93.108
			c-51.128,84.369,48.993,167.986-0.546,255.074c-15.079,26.539-39.054,45.23-34.626,79.337
			c4.258,32.786,31.361,58.145,33.569,91.867c3.366,51.401-15.274,73.622-34.426,114.805
			c-33.413,71.819,22.007,92.74,43.127,153.093c20.862,59.593-59.985,106.086-17.286,165.526
			c17.627,24.545,54.479,32.078,53.641,67.081c-0.633,26.419-27.123,49.768-25.909,81.242
			c3.269,84.428,80.301,37.841,115.765,91.858c30.216,46.033,19.069,77.992,85.344,77.12
			c41.997-0.548,105.149,24.964,143.263,14.621c87.98-23.942,41.773-97.349,65.919-155.967
			c28.623-69.51,139.429-34.08,140.851-127.154c1.077-71.373-64.535-94.586-0.102-156.819
			c26.894-25.992,42.236-41.673,35.479-80.472c-6.855-39.398-44.336-65.551-36.316-107.164c5.437-28.283,34.504-50.17,35.464-80.377
			c1.057-32.804-26.251-48.691-38.339-76.545C1338.745,832.911,1336.948,822.102,1337.805,812.083z"/>
		<g>
			<path style="fill:#F7A19A;" d="M1236.695,929.592c-14.982,0.017-75.546-25.795-101.729-65.578
				c-18.09-57.474-33.856-116.703-14.86-138.73c34.665-40.199,52.243-56.445,26.694-77.134
				c-25.306-20.487-55.658-33.055-87.702-42.246c-32.048,9.191-62.382,21.758-87.688,42.246
				c-25.564,20.689-7.985,36.935,26.675,77.134c19.05,22.061,3.196,81.463-14.928,139.02
				c-26.231,39.673-86.679,65.305-101.641,65.288c0,0-97.193,209.085,177.596,209.085
				C1333.888,1138.677,1236.695,929.592,1236.695,929.592z"/>
			<path style="fill:#DAD6D2;" d="M1120.106,725.284c34.665-40.199,52.243-56.445,26.694-77.134
				c-25.306-20.487-55.658-33.055-87.702-42.246c-32.048,9.191-62.382,21.758-87.688,42.246
				c-25.564,20.689-7.985,36.935,26.675,77.134c1.057,1.233,1.813,2.78,2.665,4.241c0.292-0.007,8.74,19.271,47.147,31.388
				c51.81,16.355,66.927,56.299,77.89,72.75l0,0C1112.394,786.809,1104.463,743.428,1120.106,725.284z"/>
		</g>
		<path style="fill:#B6BDE0;" d="M750.429,1881.11c36.628,11.096,74.318,19.245,112.467,25.581
			c79.668,13.225,163.248,24.341,244.095,23.759c104.598-0.753,192.51-34.916,273.513-88.832
			c-44.136-190.062-118.966-244.568-103.78-322.737c34.83-179.051,56.428-499.771,54.036-568.078l-94.562-21.21
			c0,0-3.966,188.334-177.1,188.334S882.014,929.592,882.014,929.592c-76.009,9.147-94.562,21.21-94.562,21.21
			c-2.412,68.307,19.201,389.027,54.016,568.078C857.936,1603.481,791.827,1682.728,750.429,1881.11z"/>
		<path style="fill:#8488C2;" d="M988.201,847.992c0,0-28.365,41.637-83.634,61.661c-70.089,25.393-195.141,49.846-224.5,124.179
			c-52.516,132.966-158.513,450.712-176.262,526.804c0,0,176.262,162.78,203.399,86.011c0,0-22.694,61.089-54.158,220.159
			l168.812,32.275c22.913-285.761,59.658-594.357,59.658-704.103C881.517,988.132,963.679,977.472,988.201,847.992z"/>
		<path style="fill:#8488C2;" d="M1129.446,846.095c0,0,32.043,43.534,87.307,63.558c70.075,25.393,195.126,49.846,224.485,124.179
			c52.531,132.966,158.532,450.712,176.281,526.804c0,0-176.281,162.78-203.419,86.011c0,0,26.879,17.854,59.371,157.368
			l-177.889,84.901c-23.717-282.931-58.888-577.848-58.888-686.61C1236.695,995.459,1158.942,986.227,1129.446,846.095z"/>
		<g>
			<path style="fill:#F7A19A;" d="M1202.766,415.969c-32.419-76.425-95.741-85.943-95.741-85.943
				c-12.857-2.974-25.749-5.264-38.509-6.77v-1.427c-2.528,0.161-5.091,0.434-7.64,0.672c-2.548-0.238-5.096-0.511-7.644-0.672
				v1.427c-12.74,1.506-25.632,3.796-38.509,6.77c0,0-63.322,9.518-95.741,85.943c-20.672,48.733-10.002,71.332-7.132,117.219
				c2.719,43.688,1.286,52.443,9.184,87.96c10.056,45.271,48.136,82.854,87.19,111.122c18.076,11.873,35.756,16.39,52.652,15.62
				c16.892,0.77,34.572-3.747,52.667-15.62c39.035-28.268,77.115-65.851,87.191-111.122c7.883-35.518,6.445-44.272,9.179-87.96
				C1212.788,487.301,1223.443,464.702,1202.766,415.969z"/>
		</g>
		<g>
			<path style="fill:#0D2240;" d="M1034.612,287.705c-108.223,23.186-150.615,119.414-174.639,216.858
				c5.301,21.785,12.979,36.986,22.226,40.767c7.201,2.938,5.014-5.72,9.067-7.286c9.778-3.805,10.787,2.248,21.252,2.419
				c24.453,0.385,10.09-40.048,27.479-55.318c7.44-6.524,18.314-7.685,25.944-16.09c9.266-10.216,13.88-25.693,16.277-38.55
				c4.994-26.882,6.548-39.639,32.726-52.207c23.669-11.388,40.083-27.093,54.874-49.254c-10.275,34.445,4.531,52.623,34.679,64.764
				c27.308,10.987,40.234,24.76,41.724,54.514c0.526,10.901-1.764,26.889,7.659,34.513c9.301,7.535,21.461,2.5,30.816,14.502
				c14.309,18.375-4.857,63.524,19.868,67.646c40.697,6.748,58.43-49.374,64.277-82.094
				C1227.989,386.087,1160.618,260.697,1034.612,287.705z"/>
		</g>
		<g>
			<path style="fill:#F7A19A;" d="M925.634,554.47c-7.659-31.113-55.576-59.278-61.715-10.348
				c-5.057,40.297,41.403,123.502,62.177,47.434L925.634,554.47z"/>
		</g>
		<g>
			<path style="fill:#F7A19A;" d="M1196.135,554.47c7.659-31.113,55.556-59.278,61.695-10.348
				c5.062,40.297-41.383,123.502-62.158,47.434L1196.135,554.47z"/>
		</g>
		<g>
			<g>
				<g>
					<g>
						<path style="fill:#DAD6D2;" d="M1047.9,695.358c6.085-3.38,12.024-4.062,18.804-4.52c1.44-0.097,1.806-1.764,0.699-2.581
							c-6.927-5.118-16.123-0.703-21.648,4.322C1044.23,693.966,1046.179,696.314,1047.9,695.358L1047.9,695.358z"/>
					</g>
				</g>
			</g>
			<g>
				<g>
					<g>
						<g>
							<path style="fill:#00001A;" d="M1149.771,538.209c-5.103-11.855-24.086-1.781-17.358,9.704
								C1138.947,559.067,1154.644,549.529,1149.771,538.209L1149.771,538.209z"/>
						</g>
					</g>
					<g>
						<g>
							<path style="fill:#000A29;" d="M1118.984,508.552c4.738-2.204,9.171-4.718,14.289-5.944c3.75-0.898,7.761-0.237,11.485,0.471
								c4.983,0.948,9.646,3.027,14.574,4.117c5.597,1.238,13.881-0.891,11.841-8.307c-1.618-5.884-9.647-7.794-14.642-9.494
								c-4.885-1.663-10.072-3.138-15.266-3.2c-10.987-0.131-21.762,5.564-29.335,13.216
								C1107.037,504.355,1113.195,511.244,1118.984,508.552L1118.984,508.552z"/>
						</g>
					</g>
				</g>
				<path style="fill:#F69992;" d="M1180.589,562.479c-28.297-15.269-95.312,36.438-50.938,60.993
					C1174.026,648.028,1208.871,577.768,1180.589,562.479z"/>
				<g>
					<g>
						<g>
							<path style="fill:#00001A;" d="M963.924,547.56c5.091,11.856,24.087,1.784,17.358-9.704
								C974.746,526.697,959.063,536.239,963.924,547.56L963.924,547.56z"/>
						</g>
					</g>
					<g>
						<g>
							<path style="fill:#000A29;" d="M1001.765,499.41c-7.552-7.63-17.475-12.549-28.229-13.19
								c-4.645-0.277-9.389,1.019-13.798,2.345c-5.41,1.626-13.444,3.435-16.515,8.677c-3.493,5.963,2.154,10.1,7.529,10.495
								c5.409,0.397,11.764-3.163,17.002-4.403c3.64-0.862,7.78-1.55,11.515-0.955c5.572,0.887,10.408,3.832,15.442,6.174
								C1000.5,511.244,1006.659,504.355,1001.765,499.41L1001.765,499.41z"/>
						</g>
					</g>
				</g>
				<path style="fill:#F69992;" d="M933.107,562.479c28.297-15.269,95.312,36.438,50.938,60.993
					C939.675,648.028,904.825,577.768,933.107,562.479z"/>
			</g>
			<g>
				<g>
					<g>
						<path style="fill:#BDB7B2;" d="M1015.941,507.107c7.035,12.664,16.989,22.968,22.404,36.651
							c0.226,0.572,1.244,0.563,1.169-0.158c-1.441-13.893-14.22-26.955-23.456-36.583
							C1015.998,506.955,1015.9,507.034,1015.941,507.107L1015.941,507.107z"/>
					</g>
				</g>
				<g>
					<g>
						<path style="fill:#BDB7B2;" d="M1046.157,570.206c0.97,9.235,0.064,18.328-2.314,27.287
							c-1.599,6.024-3.734,11.908-3.92,18.199c-0.121,4.075,8.105,5.321,10.708,5.66c5.715,0.744,12.564,0.453,17.892-1.957
							c0.461-0.209,0.131-0.983-0.344-0.816c-5.363,1.889-11.734,1.404-17.224,0.381c-2.413-0.45-4.905-1.214-7.035-2.443
							c-2.549-1.471-0.822-6.325-0.33-8.604c1.244-5.776,3.089-11.374,4.059-17.217c1.146-6.906,0.613-13.761-0.761-20.589
							C1046.805,569.699,1046.113,569.788,1046.157,570.206L1046.157,570.206z"/>
					</g>
				</g>
			</g>
			<g>
				<path style="fill:#F9BBB5;" d="M1096.136,649.765c0,0-17.101,1.009-26.455-1.89c-3.781-1.179-9.116,0.119-12.36,2.616
					c-4.054-2.821-9.15-4.548-13.579-2.702c-8.278,3.444-26.558,2.463-26.558,2.463s11.323,27.659,39.586,27.659
					C1085.018,677.911,1096.136,649.765,1096.136,649.765z"/>
				<g>
					<g>
						<path style="fill:#F9BBB5;" d="M1096.006,649.543c-11.625,7.35-23.673,11.592-37.587,11.982
							c-10.223,0.286-20.64-1.783-30.028-5.821c-3.562-1.532-8.027-3.073-11.026-5.633c-0.25-0.214-0.615,0.148-0.363,0.363
							c11.106,9.481,25.207,12.907,39.665,12.971c9.959,0.044,20.13-2.246,29.136-6.455c3.657-1.709,7.918-3.806,10.514-7.003
							C1096.49,649.733,1096.27,649.377,1096.006,649.543L1096.006,649.543z"/>
					</g>
				</g>
			</g>
		</g>
	</g>
	<g>
		<g>
			<path style="fill:#EA9993;" d="M549.047,1609.576c-2.855-84.643,85.159-62.38,139.706-59.651
				c74.055,3.683,372.649-2.704,393.784-8.319c21.135-5.61,45.028-8.823,68.779-23.768c27.424-17.254,52.423-27.379,84.608-29.944
				c11.917-0.974,34.659,0.258,36.915,7.883c3.951,13.415-7.557,15.425-27.459,17.305c-5.457,0.504-20.692,7.046-31.79,7.457
				c32.643,7.42,90.645-13.34,129.412-1.506c23.512,7.182,36.248,18.1,26.333,43.142c-12.127,30.65-37.398,19.673-61.252,33.122
				c-9.612,5.403-19.049,23.118-54.976,25.82c-20.092,1.513-44.355,0.838-63.951-2.633c-25.003-4.412-58.431-11.542-77.992-11.995
				c-19.546-0.436-352.937,69.68-421.745,66.474C607.907,1669.203,550.192,1643.605,549.047,1609.576z"/>
		</g>
	</g>
	<g>
		<g>
			<path style="fill:#F7A19A;" d="M1575.25,1609.576c2.855-84.643-85.139-62.38-139.687-59.651
				c-74.06,3.683-372.654-2.704-393.804-8.319c-21.12-5.61-45.008-8.823-68.759-23.768c-27.43-17.254-52.428-27.379-84.608-29.944
				c-11.917-0.974-34.66,0.258-36.921,7.883c-3.946,13.415,7.561,15.425,27.464,17.305c5.456,0.504,20.692,7.046,31.79,7.457
				c-32.643,7.42-90.645-13.34-129.412-1.506c-23.527,7.182-36.253,18.1-26.353,43.142c12.141,30.65,37.417,19.673,61.271,33.122
				c9.608,5.403,19.05,23.118,54.977,25.82c20.092,1.513,44.355,0.838,63.936-2.633c25.013-4.412,58.445-11.542,78.006-11.995
				c19.547-0.436,352.937,69.68,421.745,66.474C1516.41,1669.203,1574.105,1643.605,1575.25,1609.576z"/>
		</g>
	</g>
</g>
</svg>
